<svg width="520" height="210" viewBox="0 0 520 210" fill="none" xmlns="http://www.w3.org/2000/svg">
  <rect width="520" height="210" rx="24" fill="#050608"/>
  <circle cx="94" cy="106" r="62" fill="#D7FF6A"/>
  <circle cx="80" cy="88" r="10" fill="#121212"/>
  <circle cx="110" cy="88" r="10" fill="#121212"/>
  <circle cx="80" cy="89" r="18" stroke="#121212" stroke-width="6"/>
  <circle cx="110" cy="89" r="18" stroke="#121212" stroke-width="6"/>
  <rect x="66" y="118" width="56" height="44" rx="10" fill="#BF7A38"/>
  <path d="M56 122C66 108 122 108 132 122V160H56V122Z" fill="#C58A47"/>
  <text x="184" y="58" fill="white" font-size="26" font-family="Arial, sans-serif" font-weight="700">cuongkido</text>
  <text x="320" y="58" fill="#B0B6C2" font-size="16" font-family="Arial, sans-serif" font-weight="600">Cuong kido</text>
  <rect x="184" y="76" width="94" height="38" rx="10" fill="#FF2B61"/>
  <text x="231" y="101" text-anchor="middle" fill="white" font-size="18" font-family="Arial, sans-serif" font-weight="700">Follow</text>
  <rect x="288" y="76" width="96" height="38" rx="10" fill="#1A1C21"/>
  <text x="336" y="101" text-anchor="middle" fill="#F0F3F7" font-size="18" font-family="Arial, sans-serif" font-weight="700">Tin nhan</text>
  <rect x="394" y="76" width="36" height="38" rx="8" fill="#1A1C21"/>
  <rect x="440" y="76" width="36" height="38" rx="8" fill="#1A1C21"/>
  <rect x="184" y="138" width="42" height="18" rx="9" fill="#FFB800"/>
  <text x="205" y="151" text-anchor="middle" fill="#111" font-size="12" font-family="Arial, sans-serif" font-weight="700">hot</text>
  <text x="184" y="170" fill="#C7CCD4" font-size="15" font-family="Arial, sans-serif">mua dum 1 mon trong shop di</text>
  <text x="184" y="138" fill="white" font-size="16" font-family="Arial, sans-serif" font-weight="700">86 Da follow</text>
  <text x="286" y="138" fill="white" font-size="16" font-family="Arial, sans-serif" font-weight="700">1.4M Follower</text>
  <text x="418" y="138" fill="white" font-size="16" font-family="Arial, sans-serif" font-weight="700">22.2M Luot thich</text>
  <text x="184" y="192" fill="#C7CCD4" font-size="15" font-family="Arial, sans-serif">facebook.com/profile.php...</text>
</svg>
